<svg id="Capa_1" data-name="Capa 1" xmlns="http://www.w3.org/2000/svg" viewBox="0 0 811.33 601"><defs><style>.cls-1{fill:#fff;}.cls-2,.cls-3,.cls-6,.cls-7{fill:none;}.cls-3{stroke:#000;}.cls-4,.cls-5{isolation:isolate;}.cls-4{font-size:10px;font-family:Helvetica-Light, Helvetica;font-weight:300;}.cls-5{font-size:12px;fill:#7b7b7b;font-family:Arial-BoldMT, Arial;font-weight:700;}.cls-6{stroke:#bd10e0;}.cls-7{stroke:#ccc;}</style></defs><title>viz (1)</title><rect id="backgorund" class="cls-1" x="6.33" y="0.5" width="805" height="600"/><rect class="cls-2" x="0.5" y="0.5" width="805" height="600"/><path class="cls-3" d="M44.67,438h740" transform="translate(6.33 0.5)"/><line class="cls-3" x1="51" y1="438" x2="51" y2="444"/><text class="cls-4" transform="translate(32.66 454.1)">October</text><line class="cls-3" x1="101.2" y1="438" x2="101.2" y2="444"/><text class="cls-4" transform="translate(77.86 454.1)">November</text><line class="cls-3" x1="149.77" y1="438" x2="149.77" y2="444"/><text class="cls-4" transform="translate(126.16 454.1)">December</text><line class="cls-3" x1="199.97" y1="438" x2="199.97" y2="444"/><text class="cls-4" transform="translate(188.85 454.1)">1945</text><line class="cls-3" x1="250.17" y1="438" x2="250.17" y2="444"/><text class="cls-4" transform="translate(230.16 454.1)">February</text><line class="cls-3" x1="295.51" y1="438" x2="295.51" y2="444"/><text class="cls-4" transform="translate(281.34 454.1)">March</text><line class="cls-3" x1="345.7" y1="438" x2="345.7" y2="444"/><text class="cls-4" transform="translate(335.43 454.1)">April</text><line class="cls-3" x1="394.28" y1="438" x2="394.28" y2="444"/><text class="cls-4" transform="translate(384.84 454.1)">May</text><line class="cls-3" x1="444.48" y1="438" x2="444.48" y2="444"/><text class="cls-4" transform="translate(433.64 454.1)">June</text><line class="cls-3" x1="493.06" y1="438" x2="493.06" y2="444"/><text class="cls-4" transform="translate(484.17 454.1)">July</text><line class="cls-3" x1="543.25" y1="438" x2="543.25" y2="444"/><text class="cls-4" transform="translate(527.41 454.1)">August</text><line class="cls-3" x1="593.45" y1="438" x2="593.45" y2="444"/><text class="cls-4" transform="translate(568.73 454.1)">September</text><line class="cls-3" x1="642.03" y1="438" x2="642.03" y2="444"/><text class="cls-4" transform="translate(623.69 454.1)">October</text><line class="cls-3" x1="692.23" y1="438" x2="692.23" y2="444"/><text class="cls-4" transform="translate(668.89 454.1)">November</text><line class="cls-3" x1="740.8" y1="438" x2="740.8" y2="444"/><text class="cls-4" transform="translate(717.19 454.1)">December</text><line class="cls-3" x1="791" y1="438" x2="791" y2="444"/><text class="cls-4" transform="translate(779.88 454.1)">1946</text><text class="cls-5" transform="translate(764.49 433)">Date</text><path class="cls-3" d="M44.67,580.5V10.5" transform="translate(6.33 0.5)"/><line class="cls-3" x1="50.5" y1="581" x2="44.5" y2="581"/><text class="cls-4" transform="translate(23.78 584.2)">−10</text><line class="cls-3" x1="50.5" y1="509.75" x2="44.5" y2="509.75"/><text class="cls-4" transform="translate(29.34 512.95)">−5</text><line class="cls-3" x1="50.5" y1="438.5" x2="44.5" y2="438.5"/><text class="cls-4" transform="translate(35.94 441.7)">0</text><line class="cls-3" x1="50.5" y1="367.25" x2="44.5" y2="367.25"/><text class="cls-4" transform="translate(35.94 370.45)">5</text><line class="cls-3" x1="50.5" y1="296" x2="44.5" y2="296"/><text class="cls-4" transform="translate(30.38 299.2)">10</text><line class="cls-3" x1="50.5" y1="224.75" x2="44.5" y2="224.75"/><text class="cls-4" transform="translate(30.38 227.95)">15</text><line class="cls-3" x1="50.5" y1="153.5" x2="44.5" y2="153.5"/><text class="cls-4" transform="translate(30.38 156.7)">20</text><line class="cls-3" x1="50.5" y1="82.25" x2="44.5" y2="82.25"/><text class="cls-4" transform="translate(30.38 85.45)">25</text><line class="cls-3" x1="50.5" y1="11" x2="44.5" y2="11"/><text class="cls-4" transform="translate(30.38 14.2)">30</text><text class="cls-5" transform="translate(54.5 20.79)">Mean temerature (°C)</text><g id="viz"><path class="cls-6" d="M44.17,279.18,45.79,295l1.62,23.8,1.62-8,1.62,15.82L52.27,295l1.62-39.62h1.62l1.62,23.8h1.62l1.62-15.81H62L63.61,295l1.62-39.62,1.61,8,1.62-8,1.62,15.82,1.62-23.65L73.32,287l1.62,8,1.62-23.8h1.62l1.62,55.44,1.62,8L83,303l1.62-39.61,1.62,71.24,1.61,23.66,1.62-15.82,1.62,31.78,1.62-31.78,1.62-15.81L96,358.27h1.62L99.23,295h1.62l1.62-8,1.62-7.84L105.71,295l1.62,71.25,1.62,8,1.61,15.82,1.62-8,1.62-7.84,1.62-8L117,397.89l1.62,8,1.62-47.59,1.62-47.45,1.62-31.64,1.62,31.64,1.62,31.63,1.62-31.63L130,255.38h1.61l1.62,63.42,1.62,39.47,1.62-7.84,1.62,23.8,1.62-47.59H143l1.62,39.61,1.62-39.61,1.62-15.82,1.62,47.45,1.62-23.66h1.61l1.62,47.46,1.62,15.82,1.62-7.84,1.62-47.6,1.62,31.78h1.62L164,413.7l1.62-7.84,1.62-71.25L168.86,303l1.62,71.25,1.62,15.82,1.62-15.82,1.61-8L177,382.07l1.62,55.43,1.62,23.8,1.62-39.62,1.62,39.62,1.62,7.84h1.62l1.62-15.82h1.62l1.62-47.46,1.62,15.82,1.62,47.46,1.61-71.25L198,413.7l1.62,8,1.62,39.62h1.62l1.62,7.84h3.24l1.62,63.41h3.24l1.62-31.78,1.62,16L217.44,485l1.61-15.81,1.62-63.28h1.62l1.62,63.28L225.53,485l1.62,8,1.62-47.45,1.62,31.63L232,508.75l1.62-15.82,1.62,15.82,1.62-8,1.62,47.59,1.61-79.22,1.62-87.07,47-63.27,1.62,39.47,1.62,16h1.62l1.62-8,1.62-39.61,1.62-15.82L300,326.64l1.62,23.79,1.62-39.61,1.62,23.79,1.61,15.82,1.62-8,1.62-31.63,1.62-31.64L313,342.45l1.62-23.65,1.62-23.8,1.62,15.82h1.62l1.62-47.45L322.69,287l1.62-47.45,1.62-7.84h1.61l1.62,39.47,1.62,23.8,1.62,31.64L334,263.37l1.62,63.27,1.62-7.84,1.62-55.43,1.62-8,1.62,55.44,1.62,15.82L345.36,295,347,279.18h1.61l1.62,7.84,1.62-23.65,1.62-23.8,1.62-31.64,1.62,23.8,1.62-16,1.62-31.64h1.62l1.62-15.81,1.62-15.82,1.62-15.82L368,168.32l1.62,23.8,1.61,71.25L372.88,295l1.62,31.64L376.12,295l1.62-63.27,1.62,15.82L381,287l1.62,55.43,1.62-7.84,1.62,39.62,1.62-16,1.62-15.82,1.62,8L392.31,303l1.62-39.61,1.62-47.6,1.62-63.27,1.62-15.82h4.86l1.62-23.79,1.62,8,1.62,87.07,1.62-8,1.62-63.27,1.62-47.45L415,136.68l1.62,71.25,1.62-39.61,1.62,95.05h1.62l1.62-8,1.62,8h1.62l1.62-8,1.62-7.83,1.62-47.6,1.62,31.78H436l1.62,7.84,1.62-7.84,1.62-39.61h1.62l1.62-31.64,1.62-47.59,1.62,31.63L449,184.13l1.62,23.8,1.62,7.84,1.62-47.45,1.62,23.8,1.62,39.61,1.61-8,1.62-15.82,1.62,7.84,1.62-7.84,1.62-15.81,1.62-87.07,1.62,7.84L470,168.32h1.62l1.62-79.09,1.62,47.45,1.62,39.62,1.62-39.62,1.61,102.89,1.62,31.63L483,215.77l1.62-7.84,1.62,23.8,1.62-16h1.62L491.09,200l1.62-39.47,1.62-31.78L496,144.52l1.62-39.47,1.62,15.81,1.61,63.27h1.62L504,176.3l1.62-71.25,1.62-47.6,1.62,47.6,1.62,63.27,1.62-7.84,1.62-55.43h1.62L517,152.5l1.62-31.64,1.62,31.64,1.62,15.82,1.61-63.27,1.62,15.81,1.62-15.81,1.62,79.08h4.86l1.62-15.81,1.62,15.81L538.05,200l1.62-23.65,1.62-23.8,1.62-23.8,1.61,63.42,1.62,15.81,1.62,15.82,1.62-31.63L551,176.3l1.62-15.82h1.62l1.62-8,1.62,23.8,1.62-8L560.72,200l1.62-31.63,1.62,8L565.58,200h1.61l1.62-15.82h1.62l1.62,8,1.62-23.8,1.62-15.82,1.62-8,1.62-23.66,1.62-15.81,1.62,15.81,1.62,55.44,1.62-8h1.62l1.61-15.82h1.62l1.62,31.63,1.62,8,1.62,31.63,1.62-23.8L598,184.13,599.58,200l1.62,31.78,1.62-63.41,1.62-7.84,1.62,7.84,1.62,39.61h1.62l1.61-55.43,1.62-8,1.62,31.78L615.77,200l1.62-7.83H619l1.62,7.83,1.62,63.42,1.62,7.83,1.62,8,1.62-8,1.62-39.47h1.62L632,263.37l1.62,7.83,1.62-23.65h1.62L638.44,295l1.62-15.82,1.62,31.64L643.3,295l1.62-31.63,1.62,15.81,1.62,23.8,1.62-71.25,1.62-23.8,1.62,7.84,1.61-7.84,1.62,47.45,1.62,55.44,1.62-31.64,1.62-15.81L662.73,295l1.62-31.63L666,247.55l1.62-47.6,1.62-7.83,1.62,39.61h1.62l1.62,39.47,1.61-39.47,1.62,47.45,1.62-15.81h3.24l1.62,15.81,1.62,39.62L687,255.38l1.62,15.82,1.62-23.65L691.88,295l1.62-8,1.62,8,1.61,31.64L698.35,303,700,342.45h1.62l1.62,15.82,1.62,16h1.62l1.62,47.45,1.62-23.79,1.62-39.62,1.62-15.82,1.62-7.84,1.62,31.64,1.62,23.8,1.61-8L721,342.45l1.62-7.84,1.62,31.64,1.62,31.64,1.62-15.82,1.62,15.82,1.62,47.59,1.62-16L734,374.23,735.6,303l1.62,63.27,1.62,39.61,1.61-63.41,1.62,31.78,1.62,39.47,1.62,55.44,1.62,63.41,1.62-39.62,1.62-87.07,1.62-23.79,1.62-15.82,1.62,8,1.62,15.82,1.62-8,1.62-39.62L761.51,303l1.61,7.84,1.62,15.82,1.62,63.41L768,334.61h3.24l1.62,31.64,1.62-23.8L776.08,295l1.62,15.82,1.62,39.61,1.62,15.82,1.62,71.25" transform="translate(6.33 0.5)"/></g><g id="grid"><rect class="cls-7" x="0.5" y="0.5" width="805" height="600"/></g></svg>